<svg width="94" height="91" viewBox="0 0 94 91" fill="none" xmlns="http://www.w3.org/2000/svg">
<path d="M47 85.3242C72.9558 85.3242 94 66.2238 94 42.6621C94 19.1004 72.9558 0 47 0C21.0442 0 0 19.1004 0 42.6621C0 53.3886 4.36513 63.2009 11.5738 70.6972C11.0039 76.8893 9.12388 83.6787 7.04413 88.7738C6.58 89.9073 7.47888 91.175 8.648 90.98C21.902 88.725 29.7804 85.2633 33.2055 83.4593C37.7052 84.7043 42.343 85.3313 47 85.3242V85.3242ZM47 30.4303C56.776 20.0024 81.2219 38.2496 47 61.7077C12.7781 38.2435 37.224 20.0024 47 30.4303Z" fill="#FF8F01"/>
</svg>
