<svg width="135" height="99" viewBox="0 0 135 99" fill="none" xmlns="http://www.w3.org/2000/svg">
<path d="M119.513 0.398761L63.7749 0.409282C55.8763 0.410773 49.47 9.21772 49.468 20.0777L49.4647 38.7432L46.09 39.7979L43.6123 58.4235L45.3184 77.2236L62.9583 77.1056C63.2351 77.1325 63.4845 77.2202 63.7592 77.2201L119.498 77.2096C127.403 77.2081 133.807 68.4056 133.809 57.5412L133.815 20.064C133.822 9.20404 127.416 0.397269 119.513 0.398761" fill="#F48020"/>
<path d="M119.569 0.440753L63.8306 0.451274C55.9319 0.452765 49.5256 9.25746 49.5237 20.1197L49.5204 38.7875L46.1456 39.8422L43.6679 58.4655L44.8532 71.5503L46.1417 61.8925L49.5165 60.8378L49.5198 42.1722C49.5217 31.3123 55.9259 22.5053 63.8267 22.5038L119.565 22.4933C127.47 22.4918 133.871 31.2986 133.869 42.1563L133.873 20.1015C133.875 9.24154 127.474 0.439261 119.569 0.440753" fill="#FF8F01"/>
<path d="M41.753 21.0696L30.4016 21.0718C20.918 21.7321 2.05593 26.3588 2.41259 52.6995L2.41087 62.3952C2.4094 70.6908 5.80179 77.4124 9.97933 77.4116L41.7388 77.4056C45.9205 77.4048 49.3174 70.6842 49.3189 62.3864L49.3236 36.0815C49.3251 27.7882 45.9327 21.0621 41.7488 21.0629" fill="#363636"/>
<path d="M44.7861 11.8022L37.982 11.8035C32.3084 12.1507 21.0136 14.5531 21.2267 28.2337L21.2258 33.2613C21.225 37.5721 23.2635 41.0621 25.7591 41.0616L44.7767 41.058C47.2764 41.0575 49.312 37.5668 49.3127 33.256L49.3151 19.6069C49.3201 15.2962 47.2838 11.8017 44.784 11.8022" fill="#363636"/>
<path d="M27.277 28.2463L21.5844 28.2474C16.832 28.6258 7.37344 31.2729 7.55461 46.3424L7.55362 51.8893C7.55278 56.6383 9.24889 60.4879 11.3472 60.4875L27.2713 60.4845C29.3695 60.4841 31.0755 56.6338 31.0763 51.8848L31.079 36.8378C31.0798 32.0933 29.3753 28.2481 27.277 28.2485" fill="#A2C2CA"/>
<path d="M19.0899 46.9707C18.8142 40.6193 19.2232 34.088 20.9845 28.1048C16.2025 28.5102 6.86438 31.2158 7.04134 46.1999L7.04035 51.7467C7.03951 56.4957 8.73985 60.3453 10.8381 60.3449L21.1858 60.343C19.9652 56.3224 19.3025 51.8747 19.0899 46.9797" fill="#83AFB7"/>
<path d="M44.2124 81.467C44.2083 85.6014 42.6611 89.5656 39.9108 92.4883C37.1605 95.411 33.4321 97.0532 29.5449 97.0539C25.66 97.0511 21.9354 95.4088 19.1889 92.4874C16.4424 89.5661 14.8983 85.6046 14.8957 81.4725C14.8975 77.3393 16.4421 73.3753 19.1901 70.4517C21.938 67.5281 25.6645 65.8841 29.5505 65.881C31.4757 65.8801 33.3821 66.2825 35.1609 67.0652C36.9397 67.848 38.5559 68.9957 39.9174 70.443C41.2789 71.8903 42.3589 73.6088 43.0959 75.5003C43.8328 77.3917 44.2122 79.4192 44.2124 81.467" fill="white"/>
<path d="M41.6115 81.4673C41.6081 84.8678 40.3355 88.1282 38.0734 90.5321C35.8113 92.9359 32.7448 94.2866 29.5478 94.2872C26.3529 94.2836 23.2902 92.9324 21.0315 90.53C18.7728 88.1276 17.5025 84.87 17.4992 81.4719C17.5418 78.1004 18.831 74.8818 21.0878 72.513C23.3447 70.1442 26.3875 68.8157 29.5576 68.8151C32.7277 68.8145 35.77 70.1419 38.026 72.5098C40.282 74.8778 41.5701 78.0958 41.6115 81.4673" fill="#FF8F01"/>
<path d="M37.3667 81.287C37.3663 83.4916 36.5426 85.606 35.0767 87.1652C33.6108 88.7243 31.6228 89.6005 29.5501 89.6009C27.4774 89.6013 25.4897 88.7259 24.0243 87.1673C22.559 85.6087 21.736 83.4945 21.7364 81.2899C21.7947 79.1263 22.6438 77.0719 24.1034 75.563C25.563 74.0542 27.518 73.2098 29.553 73.2095C31.588 73.2091 33.5427 74.0527 35.0017 75.561C36.4608 77.0692 37.3092 79.1234 37.3667 81.287Z" fill="#969796"/>
<path d="M104.475 84.909C104.473 88.5089 103.127 91.9613 100.734 94.5073C98.3398 97.0533 95.0939 98.4845 91.7093 98.4863C88.325 98.4846 85.0803 97.0542 82.6877 94.5094C80.2951 91.9646 78.9504 88.5134 78.9488 84.9138C78.9505 81.3139 80.2962 77.8615 82.6899 75.3155C85.0836 72.7695 88.3295 71.3383 91.7141 71.3365C93.3902 71.3361 95.0497 71.687 96.5981 72.3689C98.1464 73.0508 99.5532 74.0504 100.738 75.3108C101.923 76.5711 102.863 78.0674 103.504 79.7143C104.145 81.3611 104.475 83.1263 104.475 84.909" fill="white"/>
<path d="M102.215 84.9079C102.214 87.8674 101.108 90.7059 99.1404 92.7989C97.1726 94.892 94.5038 96.0682 91.7213 96.0687C88.9388 96.0692 86.2705 94.8941 84.3034 92.8017C82.3362 90.7094 81.2314 87.8713 81.2319 84.9118C81.2311 83.447 81.5016 81.9963 82.028 80.6425C82.5544 79.2888 83.3265 78.0585 84.3 77.0221C85.2735 75.9856 86.4294 75.1632 87.7016 74.602C88.9739 74.0407 90.3375 73.7515 91.7147 73.751C93.0934 73.7489 94.4589 74.036 95.733 74.5958C97.0071 75.1556 98.1649 75.9771 99.1401 77.0133C100.115 78.0495 100.889 79.2801 101.416 80.6347C101.944 81.9894 102.215 83.4414 102.215 84.9079" fill="#FF8F01"/>
<path d="M98.5275 84.757C98.5273 85.7078 98.351 86.6494 98.0087 87.5279C97.6663 88.4064 97.1647 89.2047 96.5323 89.877C95.9 90.5494 95.1493 91.0827 94.3232 91.4466C93.4972 91.8104 92.6119 91.9976 91.7179 91.9975C90.373 91.9964 89.0588 91.5713 87.9413 90.7759C86.8238 89.9806 85.9531 88.8506 85.4394 87.5289C84.9256 86.2072 84.7919 84.753 85.0549 83.3501C85.318 81.9472 85.9661 80.6586 86.9174 79.6471C87.8687 78.6357 89.0804 77.9467 90.3995 77.6673C91.7185 77.388 93.0857 77.5307 94.3282 78.0776C95.5707 78.6244 96.6328 79.5508 97.3802 80.7397C98.1277 81.9286 98.5269 83.3265 98.5275 84.757" fill="#969796"/>
<path d="M130.578 85.3563C130.576 87.1375 130.245 88.901 129.602 90.5462C128.96 92.1914 128.019 93.686 126.834 94.9447C125.648 96.2034 124.242 97.2015 122.694 97.882C121.146 98.5626 119.487 98.9123 117.813 98.9111C116.138 98.91 114.48 98.558 112.934 97.8753C111.387 97.1926 109.982 96.1925 108.799 94.9322C107.616 93.6719 106.678 92.176 106.039 90.5299C105.4 88.8838 105.072 87.1198 105.073 85.3386C105.077 81.7413 106.424 78.2922 108.818 75.7502C111.212 73.2082 114.456 71.7814 117.839 71.7837C121.221 71.7861 124.463 73.2174 126.852 75.7627C129.241 78.308 130.581 81.7589 130.578 85.3563" fill="white"/>
<path d="M128.316 85.3551C128.312 88.3155 127.203 91.1536 125.234 93.2462C123.264 95.3388 120.595 96.5148 117.812 96.516C115.029 96.5165 112.361 95.3413 110.394 93.249C108.427 91.1567 107.322 88.3186 107.322 85.3591C107.323 82.3996 108.429 79.561 110.396 77.468C112.364 75.3749 115.033 74.1987 117.816 74.1982C119.194 74.1971 120.559 74.4848 121.833 75.0449C123.107 75.6049 124.264 76.4265 125.239 77.4625C126.214 78.4986 126.988 79.7288 127.516 81.083C128.043 82.4373 128.315 83.8889 128.316 85.3551" fill="#FF8F01"/>
<path d="M124.619 85.2026C124.635 86.1635 124.47 87.1183 124.136 88.0111C123.801 88.9039 123.302 89.7168 122.669 90.4025C122.035 91.0882 121.28 91.6329 120.446 92.0047C119.613 92.3766 118.718 92.5682 117.815 92.5684C116.911 92.5685 116.017 92.3773 115.183 92.0057C114.35 91.6342 113.595 91.0898 112.962 90.4043C112.328 89.7189 111.83 88.9061 111.495 88.0134C111.161 87.1208 110.997 86.1661 111.013 85.2051C111.045 83.3082 111.776 81.5 113.048 80.1701C114.321 78.8402 116.033 78.0948 117.817 78.0944C119.601 78.0941 121.313 78.8388 122.586 80.1683C123.858 81.4978 124.588 83.3056 124.619 85.2026" fill="#969796"/>
<path d="M6.53805 68.1191C6.53738 71.8994 5.09994 74.9675 3.32285 74.9679C1.54787 74.9682 0.109417 71.9006 0.110088 68.1203L0.110115 67.9675C0.110785 64.1917 1.55033 61.1325 3.32531 61.1322C5.1024 61.1319 6.53874 64.1905 6.53807 67.9663L6.53805 68.1191Z" fill="#F1F1F1"/>
<path d="M134.25 63.1216C134.249 66.9019 132.812 69.9611 131.032 69.9614C129.259 69.9618 127.819 66.9032 127.82 63.1229L127.82 62.9745C127.82 59.1897 129.262 56.1306 131.035 56.1303C132.816 56.1299 134.25 59.1885 134.25 62.9733L134.25 63.1216Z" fill="#DF394C"/>
</svg>
